<?xml version="1.0" standalone="no"?>
<!DOCTYPE svg PUBLIC "-//W3C//DTD SVG 20010904//EN"
        "http://www.w3.org/TR/2001/REC-SVG-20010904/DTD/svg10.dtd">
<svg version="1.0" xmlns="http://www.w3.org/2000/svg"
     width="2000.000000pt" height="2000.000000pt" viewBox="0 0 2000.000000 2000.000000"
     preserveAspectRatio="xMidYMid meet">
    <metadata>
        Created by potrace 1.11, written by Peter Selinger 2001-2013
    </metadata>
    <g transform="translate(0.000000,2000.000000) scale(0.100000,-0.100000)"
       fill="#000000" stroke="none">
        <path d="M3640 19379 c-183 -21 -400 -82 -497 -141 -76 -46 -141 -114 -172
-178 -37 -78 -42 -215 -11 -326 74 -275 319 -617 770 -1078 382 -391 750 -711
1603 -1394 229 -184 417 -338 417 -342 0 -4 -54 -48 -121 -99 -557 -427 -1043
-909 -1472 -1459 -1006 -1289 -1575 -2727 -1712 -4322 -99 -1162 26 -2256 376
-3288 735 -2163 2152 -3785 4189 -4791 866 -428 1768 -691 2695 -785 322 -33
472 -40 855 -40 507 1 860 27 1330 100 1899 293 3692 1307 4951 2799 191 227
249 305 249 335 0 35 39 4 -550 430 -261 189 -770 558 -1130 820 -360 262
-667 485 -682 494 -17 11 -37 16 -51 12 -13 -3 -72 -64 -142 -148 -342 -410
-849 -835 -1370 -1147 -149 -90 -498 -262 -668 -330 -404 -163 -864 -276
-1327 -327 -314 -34 -825 -29 -1190 11 -1348 151 -2489 775 -3385 1854 -524
631 -878 1348 -1049 2121 -184 832 -158 1783 70 2579 308 1073 985 2048 1889
2722 239 177 522 352 784 484 l128 63 94 -65 c149 -105 899 -619 1439 -988
649 -443 1209 -832 1554 -1077 153 -109 283 -200 289 -201 23 -4 104 446 132
733 57 592 35 1153 -70 1774 -13 78 -22 142 -20 144 5 5 210 -53 355 -100
1065 -346 1945 -995 2615 -1928 90 -125 106 -140 151 -140 17 0 198 88 449
217 637 328 1378 708 1788 918 227 116 374 196 383 210 9 15 12 33 8 50 -8 30
-261 414 -389 590 -509 696 -1115 1292 -1850 1820 -1202 864 -2526 1359 -3980
1489 -415 37 -971 44 -1350 16 -140 -10 -117 -19 -315 130 -327 247 -622 427
-1065 648 -1251 624 -2675 991 -4374 1127 -205 16 -497 18 -621 4z"/>
    </g>
</svg>
